<svg xmlns="http://www.w3.org/2000/svg" xmlns:xlink="http://www.w3.org/1999/xlink" id="logo" width="720" height="156.61399841" viewBox="0 0 720 156.61399841"><defs><style>.cls-1{fill:url(#linear-gradient);}.cls-2{fill:#ec008c;}.cls-3{fill:#fff;}</style><linearGradient id="linear-gradient" x1="359.39239502" y1="1353.53699112" x2="562.91329956" y2="1353.53699112" gradientTransform="translate(-354.59960938 -1275.22999191)" gradientUnits="userSpaceOnUse"><stop offset=".0173" stop-color="#fdb515"></stop><stop offset=".1046" stop-color="#fca91d"></stop><stop offset=".26280001" stop-color="#f98932"></stop><stop offset=".4741" stop-color="#f45454"></stop><stop offset=".72790001" stop-color="#ed0d83"></stop><stop offset=".77150002" stop-color="#ec008c"></stop></linearGradient></defs><path class="cls-1" d="M114.61399841,1.56600189H24.51400757l8.88000488,30.68799973h81.22000122c8.46800232,0,15.3500061,6.88700104,15.3500061,15.35000038v15.35000038H53.24301147c-25.38900757,0-46.04299927,20.65500069-46.04299927,46.04499817,0,25.38800049,20.6539917,46.04899597,46.04299927,46.04899597h61.3710022c25.38900757,0,46.04400635-20.66099548,46.04400635-46.04899979v-61.39599323c-.00001526-25.38199902-20.65501404-46.03700161-46.04402161-46.03700161ZM129.96400452,108.99800491c0,8.46300125-6.88699341,15.34899902-15.3500061,15.34899902h-61.3710022c-8.46200562,0-15.34901428-6.88600159-15.34901428-15.34899902,0-8.4640007,6.88699341-15.35100174,15.34899902-15.35100174h76.7210083v15.35100174h.00001526Z"></path><polygon class="cls-2" points="204.57699585 62.95900369 176.60199738 62.95900369 176.60199738 93.64800262 213.46299744 93.64800262 204.57699585 62.95900369"></polygon><path class="cls-3" d="M316.5549984,109.23800278h-13.42000008v-7.39099884c-4.24300003,5.45999908-10.59300041,8.98900223-19.31299973,8.98900223-17.20000076,0-30.74500275-13.54599762-30.74500275-32.34500122,0-18.80400085,13.54500008-32.34999847,30.74500084-32.34999847,8.72599983,0,15.07600021,3.59799957,19.31299973,9.05099964v-7.44099998h13.42000008s0,61.48699665.00000191,61.48699665ZM266.8789978,78.49800301c0,10.78100014,6.99499893,19.70000267,18.54800034,19.70000267,11.10700035,0,18.54199982-8.47399902,18.54199982-19.70000076,0-11.2329998-7.43499994-19.70800018-18.54199982-19.70800018-11.5529995-.00000095-18.54800034,8.92599916-18.54800034,19.70799828Z"></path><path class="cls-3" d="M432.11799622,70.6000042v38.64299965h-13.47699738v-34.21199989c0-10.33600044-5.3219986-16.10899925-14.31099701-16.10899925-8.66300201,0-15.91000366,5.71000004-15.91000366,16.23500061v34.08100128h-13.49299622v-34.21200275c0-10.33600044-5.31500244-16.11499977-14.30500031-16.11499977-8.66300201,0-15.91999817,5.71600008-15.91999817,16.24099922v34.08000278h-13.48300552v-61.47900009h13.35100174v7.50400019c4.94599915-7.24700022,12.57500076-9.1140008,18.875-9.1140008,9.37000275,0,17.00499725,4.16800022,21.2480011,10.97599983,5.31600189-8.79500008,14.81700134-10.97599983,22.45400238-10.97599983,14.65299225.00399876,24.97099304,10.07699823,24.97099304,24.45699883Z"></path><path class="cls-3" d="M585.43200684,78.49800301c0,18.41699791-14.10998535,32.34399986-33.10400391,32.34399986-18.99200439,0-33.05200195-13.9280014-33.05200195-32.34400177,0-18.42200089,14.05999756-32.35100174,33.05200195-32.35100174,18.99398804.00000477,33.10400391,13.92800435,33.10400391,32.35100365ZM533.07299805,78.49800301c0,11.61499977,8.27999878,19.70000267,19.25601196,19.70000267s19.31298828-8.08499908,19.31298828-19.70000076c0-11.62100029-8.33700562-19.70800018-19.31298828-19.70800018s-19.25601196,8.08699894-19.25601196,19.70799828Z"></path><path class="cls-3" d="M650.16799927,55.96400356l-8.60101318,9.17700005c-4.30599976-4.04300022-8.85699463-6.35099983-14.75698853-6.35099983-10.33599854,0-18.16400146,8.08600044-18.16400146,19.70800114,0,11.61499977,7.83499146,19.70000076,18.16400146,19.70000076,5.91101074,0,11.15899658-2.76800156,15.07598877-6.42200089l8.28100586,9.23799896c-5.58499146,6.48600006-13.79101562,9.82799911-22.98001099,9.82799911-19.57998657,0-32.34298706-13.9280014-32.34298706-32.34400177,0-18.42200089,12.76800537-32.35100174,32.34298706-32.35100174,9.19000244.00000477,17.52700806,3.34100437,22.98101807,9.8170042Z"></path><path class="cls-3" d="M705.54699707,63.15900373c-3.72299194-2.31800008-11.3460083-5.26499987-18.99200439-5.26499987-7.32000732,0-11.60900879,2.9460001-11.60900879,7.31500006,0,4.30000067,4.48800659,5.52199984,10.13598633,6.3499999l6.3500061.95899963c13.42599487,1.93000031,21.36898804,7.64599991,21.36898804,18.17099953,0,11.81000137-10.26800537,20.07900238-27.98001099,20.07900238-6.35101318,0-17.39599609-1.2120018-26.37200928-7.89300156l6.2250061-10.07400131c4.43099976,3.40399933,10.26800537,6.28800201,20.27099609,6.28800201,9.18399048,0,13.99200439-2.88399887,13.99200439-7.50899887,0-3.46800041-3.32901001-5.76900101-10.64001465-6.79599953l-6.42401123-.84000015c-13.61300659-1.85499954-20.86099243-8.15499973-20.86099243-18.04000092,0-12.19099998,9.76599121-19.70100021,25.42401123-19.70100021,9.62298584,0,18.54800415,2.375,24.89801025,6.48099995l-5.78695679,10.47499895Z"></path><path class="cls-3" d="M493.602005,55.1820035v-22.62000132l13.41999817-4.75100136v81.43099976h-13.41999817v-7.38899994c-4.24299622,5.45999908-10.59300232,8.98799896-19.33000183,8.98799896-17.19400024,0-30.7460022-13.54500198-30.7460022-32.35599899,0-18.81100082,13.54600525-32.35599899,30.7460022-32.35599899,8.73799133-.0039978,15.08699036,3.59300232,19.33000183,9.05300188ZM457.33000183,78.48600388c0,10.79199982,6.99499512,19.71100235,18.55799866,19.71100235,11.09700012,0,18.55000305-8.47399902,18.55000305-19.71100044,0-11.23200035-7.44799805-19.70700073-18.55000305-19.70700073-11.56300354.00099862-18.55799866,8.92499876-18.55799866,19.70699883Z"></path></svg>